<svg width="16" height="17" viewBox="0 0 16 17" fill="none" xmlns="http://www.w3.org/2000/svg">
<ellipse cx="8.5" cy="10.1562" rx="5.5" ry="6" fill="#F4F6F8"/>
<path d="M8 0.15625C10.1217 0.15625 12.1566 0.999105 13.6569 2.4994C15.1571 3.99969 16 6.03452 16 8.15625C16 10.278 15.1571 12.3128 13.6569 13.8131C12.1566 15.3134 10.1217 16.1562 8 16.1562C5.87827 16.1562 3.84344 15.3134 2.34315 13.8131C0.842855 12.3128 0 10.278 0 8.15625C0 6.03452 0.842855 3.99969 2.34315 2.4994C3.84344 0.999105 5.87827 0.15625 8 0.15625ZM7.00343 9.73454L5.22629 7.95625C5.16258 7.89254 5.08694 7.842 5.0037 7.80752C4.92046 7.77304 4.83124 7.7553 4.74114 7.7553C4.65104 7.7553 4.56183 7.77304 4.47859 7.80752C4.39534 7.842 4.31971 7.89254 4.256 7.95625C4.12733 8.08492 4.05505 8.25943 4.05505 8.44139C4.05505 8.62336 4.12733 8.79787 4.256 8.92654L6.51886 11.1894C6.58239 11.2534 6.65796 11.3042 6.74123 11.3389C6.82449 11.3736 6.9138 11.3915 7.004 11.3915C7.0942 11.3915 7.18351 11.3736 7.26677 11.3389C7.35004 11.3042 7.42561 11.2534 7.48914 11.1894L12.1749 6.50254C12.2394 6.43909 12.2908 6.36349 12.326 6.2801C12.3612 6.1967 12.3795 6.10716 12.3799 6.01665C12.3804 5.92613 12.3629 5.83642 12.3284 5.75271C12.294 5.66899 12.2434 5.59291 12.1794 5.52887C12.1154 5.46483 12.0394 5.41408 11.9557 5.37956C11.872 5.34504 11.7824 5.32743 11.6918 5.32775C11.6013 5.32806 11.5118 5.34629 11.4283 5.38139C11.3449 5.41649 11.2692 5.46776 11.2057 5.53225L7.00343 9.73454Z" fill="#4DC849"/>
</svg>
