<svg width="17" height="16" viewBox="0 0 17 16" fill="none" xmlns="http://www.w3.org/2000/svg">
<path fill-rule="evenodd" clip-rule="evenodd" d="M3.97299 0.249708C6.98178 -0.0832361 10.0182 -0.0832361 13.027 0.249708C14.6929 0.436114 16.0369 1.74581 16.2324 3.41472C16.5892 6.46094 16.5892 9.53829 16.2324 12.5845C16.1335 13.3954 15.7631 14.1493 15.1813 14.7237C14.5995 15.2982 13.8404 15.6597 13.027 15.7495C10.0183 16.0835 6.98172 16.0835 3.97299 15.7495C3.15964 15.6597 2.40052 15.2982 1.81872 14.7237C1.23691 14.1493 0.866526 13.3954 0.767611 12.5845C0.410796 9.53861 0.410796 6.46158 0.767611 3.41569C0.866484 2.60489 1.23673 1.85119 1.81834 1.27673C2.39995 0.702269 3.15884 0.340721 3.97202 0.250679L3.97299 0.249708ZM8.5 3.15259C8.69344 3.15259 8.87896 3.2293 9.01575 3.36585C9.15253 3.50241 9.22938 3.68761 9.22938 3.88073V7.27195H12.6263C12.8198 7.27195 13.0053 7.34867 13.1421 7.48522C13.2789 7.62177 13.3557 7.80698 13.3557 8.0001C13.3557 8.19321 13.2789 8.37842 13.1421 8.51497C13.0053 8.65153 12.8198 8.72824 12.6263 8.72824H9.22938V12.1195C9.22938 12.3126 9.15253 12.4978 9.01575 12.6343C8.87896 12.7709 8.69344 12.8476 8.5 12.8476C8.30655 12.8476 8.12104 12.7709 7.98425 12.6343C7.84747 12.4978 7.77062 12.3126 7.77062 12.1195V8.72824H4.37366C4.18022 8.72824 3.9947 8.65153 3.85791 8.51497C3.72113 8.37842 3.64428 8.19321 3.64428 8.0001C3.64428 7.80698 3.72113 7.62177 3.85791 7.48522C3.9947 7.34867 4.18022 7.27195 4.37366 7.27195H7.77062V3.88073C7.77062 3.68761 7.84747 3.50241 7.98425 3.36585C8.12104 3.2293 8.30655 3.15259 8.5 3.15259Z" fill="#F4F6F8"/>
</svg>
