<svg width="32" height="32" viewBox="0 0 32 32" fill="none" xmlns="http://www.w3.org/2000/svg">
<path opacity="0.5" fill-rule="evenodd" clip-rule="evenodd" d="M6.94598 0.499417C12.9636 -0.166472 19.0364 -0.166472 25.054 0.499417C28.3858 0.872228 31.0738 3.49161 31.4648 6.82944C32.1784 12.9219 32.1784 19.0766 31.4648 25.169C31.2669 26.7909 30.5262 28.2985 29.3626 29.4475C28.199 30.5964 26.6807 31.3194 25.054 31.499C19.0365 32.167 12.9634 32.167 6.94598 31.499C5.31927 31.3194 3.80104 30.5964 2.63743 29.4475C1.47382 28.2985 0.733053 26.7909 0.535222 25.169C-0.178407 19.0772 -0.178407 12.9232 0.535222 6.83138C0.732967 5.20979 1.47346 3.70238 2.63668 2.55346C3.7999 1.40454 5.31768 0.681441 6.94403 0.501358L6.94598 0.499417ZM16 6.30517C16.3869 6.30517 16.7579 6.4586 17.0315 6.73171C17.3051 7.00482 17.4588 7.37523 17.4588 7.76146V14.5439H24.2527C24.6396 14.5439 25.0106 14.6973 25.2842 14.9704C25.5577 15.2435 25.7114 15.614 25.7114 16.0002C25.7114 16.3864 25.5577 16.7568 25.2842 17.0299C25.0106 17.3031 24.6396 17.4565 24.2527 17.4565H17.4588V24.2389C17.4588 24.6252 17.3051 24.9956 17.0315 25.2687C16.7579 25.5418 16.3869 25.6952 16 25.6952C15.6131 25.6952 15.2421 25.5418 14.9685 25.2687C14.6949 24.9956 14.5412 24.6252 14.5412 24.2389V17.4565H7.74732C7.36043 17.4565 6.98939 17.3031 6.71582 17.0299C6.44225 16.7568 6.28856 16.3864 6.28856 16.0002C6.28856 15.614 6.44225 15.2435 6.71582 14.9704C6.98939 14.6973 7.36043 14.5439 7.74732 14.5439H14.5412V7.76146C14.5412 7.37523 14.6949 7.00482 14.9685 6.73171C15.2421 6.4586 15.6131 6.30517 16 6.30517Z" fill="#315784"/>
</svg>
