<svg width="32" height="28" viewBox="0 0 32 28" fill="none" xmlns="http://www.w3.org/2000/svg">
<path d="M3.2 3.11111H8L11.2 0H20.8L24 3.11111H28.8C29.6487 3.11111 30.4626 3.43889 31.0627 4.02233C31.6629 4.60578 32 5.3971 32 6.22222V24.8889C32 25.714 31.6629 26.5053 31.0627 27.0888C30.4626 27.6722 29.6487 28 28.8 28H3.2C2.35131 28 1.53737 27.6722 0.937258 27.0888C0.337142 26.5053 0 25.714 0 24.8889V6.22222C0 5.3971 0.337142 4.60578 0.937258 4.02233C1.53737 3.43889 2.35131 3.11111 3.2 3.11111ZM16 7.77778C13.8783 7.77778 11.8434 8.59722 10.3431 10.0558C8.84285 11.5145 8 13.4928 8 15.5556C8 17.6184 8.84285 19.5967 10.3431 21.0553C11.8434 22.5139 13.8783 23.3333 16 23.3333C18.1217 23.3333 20.1566 22.5139 21.6569 21.0553C23.1571 19.5967 24 17.6184 24 15.5556C24 13.4928 23.1571 11.5145 21.6569 10.0558C20.1566 8.59722 18.1217 7.77778 16 7.77778ZM16 10.8889C17.273 10.8889 18.4939 11.3806 19.3941 12.2557C20.2943 13.1309 20.8 14.3179 20.8 15.5556C20.8 16.7932 20.2943 17.9802 19.3941 18.8554C18.4939 19.7306 17.273 20.2222 16 20.2222C14.727 20.2222 13.5061 19.7306 12.6059 18.8554C11.7057 17.9802 11.2 16.7932 11.2 15.5556C11.2 14.3179 11.7057 13.1309 12.6059 12.2557C13.5061 11.3806 14.727 10.8889 16 10.8889Z" fill="#315784"/>
</svg>
