<svg width="20" height="16" viewBox="0 0 20 16" fill="none" xmlns="http://www.w3.org/2000/svg">
<path d="M9.99988 13.3333C8.36988 13.3333 6.93988 12.6311 5.99988 11.5556H9.99988C10.7955 11.5556 11.5586 11.2746 12.1212 10.7745C12.6838 10.2744 12.9999 9.59613 12.9999 8.88889C12.9999 8.57778 12.9299 8.27556 12.8199 8H14.8999C14.9599 8.28444 14.9999 8.58667 14.9999 8.88889C14.9999 10.0676 14.4731 11.1981 13.5354 12.0316C12.5977 12.8651 11.326 13.3333 9.99988 13.3333ZM9.99988 4.44444C11.6299 4.44444 13.0599 5.14667 13.9999 6.22222H9.99988C9.20423 6.22222 8.44117 6.50317 7.87856 7.00327C7.31595 7.50337 6.99988 8.18164 6.99988 8.88889C6.99988 9.2 7.06988 9.49333 7.17988 9.77778H5.09988C5.02988 9.49333 4.99988 9.19111 4.99988 8.88889C4.99988 7.71015 5.52666 6.57969 6.46434 5.74619C7.40203 4.9127 8.6738 4.44444 9.99988 4.44444ZM17.9999 1.77778H14.8299L12.9999 0H6.99988L5.16988 1.77778H1.99988C1.46944 1.77778 0.960737 1.96508 0.585664 2.29848C0.210592 2.63187 -0.00012207 3.08406 -0.00012207 3.55556V14.2222C-0.00012207 14.6937 0.210592 15.1459 0.585664 15.4793C0.960737 15.8127 1.46944 16 1.99988 16H17.9999C18.5303 16 19.039 15.8127 19.4141 15.4793C19.7892 15.1459 19.9999 14.6937 19.9999 14.2222V3.55556C19.9999 3.08406 19.7892 2.63187 19.4141 2.29848C19.039 1.96508 18.5303 1.77778 17.9999 1.77778Z" fill="#315784"/>
</svg>
