<svg width="20" height="20" viewBox="0 0 20 20" fill="none" xmlns="http://www.w3.org/2000/svg">
<path d="M10 0C12.6522 0 15.1957 1.05357 17.0711 2.92893C18.9464 4.8043 20 7.34784 20 10C20 12.6522 18.9464 15.1957 17.0711 17.0711C15.1957 18.9464 12.6522 20 10 20C7.34784 20 4.8043 18.9464 2.92893 17.0711C1.05357 15.1957 0 12.6522 0 10C0 7.34784 1.05357 4.8043 2.92893 2.92893C4.8043 1.05357 7.34784 0 10 0ZM8.75429 11.9729L6.53286 9.75C6.45322 9.67036 6.35868 9.60719 6.25463 9.56409C6.15057 9.52099 6.03905 9.49881 5.92643 9.49881C5.8138 9.49881 5.70228 9.52099 5.59823 9.56409C5.49418 9.60719 5.39964 9.67036 5.32 9.75C5.15917 9.91084 5.06881 10.129 5.06881 10.3564C5.06881 10.5839 5.15917 10.802 5.32 10.9629L8.14857 13.7914C8.22798 13.8715 8.32246 13.935 8.42654 13.9783C8.53062 14.0217 8.64225 14.044 8.755 14.044C8.86775 14.044 8.97938 14.0217 9.08346 13.9783C9.18754 13.935 9.28202 13.8715 9.36143 13.7914L15.2186 7.93286C15.2993 7.85355 15.3635 7.75905 15.4075 7.65481C15.4515 7.55056 15.4744 7.43864 15.4749 7.32549C15.4754 7.21235 15.4536 7.10022 15.4105 6.99557C15.3675 6.89092 15.3042 6.79583 15.2242 6.71577C15.1443 6.63572 15.0493 6.57229 14.9447 6.52914C14.8401 6.48599 14.728 6.46398 14.6148 6.46437C14.5017 6.46476 14.3897 6.48755 14.2854 6.53143C14.1811 6.5753 14.0865 6.63939 14.0071 6.72L8.75429 11.9729Z" fill="#F4F6F8"/>
</svg>
