<svg width="134" height="147" viewBox="0 0 134 147" fill="none" xmlns="http://www.w3.org/2000/svg">
<ellipse opacity="0.5" cx="67" cy="67" rx="54" ry="54" fill="#B90000"/>
<circle opacity="0.2" cx="67" cy="67" r="67" fill="#B90000"/>
<rect x="25" y="40.7246" width="84" height="52" rx="10" fill="#315784" fill-opacity="0.7"/>
<path d="M41.1238 51C39.8942 51 39 51.9588 39 53.2772V144.723C39 146.041 39.8942 147 41.1238 147H92.8762C94.1058 147 95 146.041 95 144.723V53.2772C95 51.9588 94.1058 51 92.8762 51H41.1238ZM50.1776 79.7515C50.1776 70.4916 57.6842 62.985 66.9441 62.985C76.204 62.985 83.7106 70.4916 83.7106 79.7515V106.144C83.7106 115.403 76.204 122.91 66.9441 122.91C57.6842 122.91 50.1776 115.404 50.1776 106.144V79.7515ZM66.9441 128.903C70.0739 128.903 72.5329 131.539 72.5329 134.895C72.5329 138.251 70.0739 140.888 66.9441 140.888C63.8144 140.888 61.3553 138.251 61.3553 134.895C61.3553 131.539 63.8144 128.903 66.9441 128.903Z" fill="#315784"/>
<circle cx="67.5" cy="134.5" r="6.5" fill="#F4F6F8"/>
<rect x="47" y="60" width="40" height="64" fill="#F4F6F8"/>
<path d="M75.5495 87.5012C70.8696 82.8329 63.1898 82.8329 58.5099 87.5012C53.83 92.1696 53.83 99.8304 58.5099 104.499C63.1898 109.167 70.7496 109.167 75.4295 104.499C80.1094 99.8304 80.2294 92.1696 75.5495 87.5012ZM70.3896 101.027L67.0297 97.6758L63.6698 101.027L61.9898 99.3516L65.3498 96L61.9898 92.6484L63.6698 90.9726L67.0297 94.3242L70.3896 90.9726L72.0696 92.6484L68.7097 96L72.0696 99.3516L70.3896 101.027Z" fill="#B90000"/>
</svg>
