<svg width="36" height="28" viewBox="0 0 36 28" fill="none" xmlns="http://www.w3.org/2000/svg">
<path d="M0 3.5C0 1.575 1.62 0 3.6 0H32.4C33.3548 0 34.2705 0.368749 34.9456 1.02513C35.6207 1.6815 36 2.57174 36 3.5V24.5C36 25.4283 35.6207 26.3185 34.9456 26.9749C34.2705 27.6313 33.3548 28 32.4 28H3.6C2.64522 28 1.72955 27.6313 1.05442 26.9749C0.379285 26.3185 0 25.4283 0 24.5V3.5ZM19.8 19.25L14.4 14L3.6 24.5H32.4L23.4 15.75L19.8 19.25ZM27 12.25C27.9548 12.25 28.8705 11.8813 29.5456 11.2249C30.2207 10.5685 30.6 9.67826 30.6 8.75C30.6 7.82174 30.2207 6.9315 29.5456 6.27513C28.8705 5.61875 27.9548 5.25 27 5.25C26.0452 5.25 25.1295 5.61875 24.4544 6.27513C23.7793 6.9315 23.4 7.82174 23.4 8.75C23.4 9.67826 23.7793 10.5685 24.4544 11.2249C25.1295 11.8813 26.0452 12.25 27 12.25Z" fill="#315784"/>
</svg>
