<svg width="34" height="32" viewBox="0 0 34 32" fill="none" xmlns="http://www.w3.org/2000/svg">
<path d="M33.2963 15.7378L17.8483 0.350447C17.7371 0.239356 17.605 0.151221 17.4595 0.0910872C17.3141 0.0309529 17.1582 0 17.0007 0C16.8432 0 16.6873 0.0309529 16.5419 0.0910872C16.3965 0.151221 16.2643 0.239356 16.1531 0.350447L0.705081 15.7378C0.255029 16.1864 0 16.7958 0 17.4313C0 18.751 1.07637 19.8239 2.40028 19.8239H4.02796V30.8037C4.02796 31.4654 4.56427 32 5.2281 32H14.6004V23.6259H18.8009V32H28.7733C29.4371 32 29.9734 31.4654 29.9734 30.8037V19.8239H31.6011C32.2387 19.8239 32.85 19.5735 33.3001 19.1211C34.2339 18.1865 34.2339 16.6724 33.2963 15.7378Z" fill="#315784"/>
</svg>
