<svg width="24" height="24" viewBox="0 0 24 24" fill="none" xmlns="http://www.w3.org/2000/svg">
<path d="M13.2 12.21V8.4C13.2 8.06 13.0848 7.7748 12.8544 7.5444C12.624 7.314 12.3392 7.1992 12 7.2C11.66 7.2 11.3748 7.3152 11.1444 7.5456C10.914 7.776 10.7992 8.0608 10.8 8.4V12.69C10.8 12.85 10.83 13.0052 10.89 13.1556C10.95 13.306 11.04 13.4408 11.16 13.56L14.19 16.59C14.43 16.83 14.7152 16.95 15.0456 16.95C15.376 16.95 15.6608 16.83 15.9 16.59C16.12 16.35 16.23 16.0648 16.23 15.7344C16.23 15.404 16.12 15.1292 15.9 14.91L13.2 12.21ZM12 4.8C12.34 4.8 12.6252 4.6848 12.8556 4.4544C13.086 4.224 13.2008 3.9392 13.2 3.6C13.2 3.26 13.0848 2.9748 12.8544 2.7444C12.624 2.514 12.3392 2.3992 12 2.4C11.66 2.4 11.3748 2.5152 11.1444 2.7456C10.914 2.976 10.7992 3.2608 10.8 3.6C10.8 3.94 10.9152 4.2252 11.1456 4.4556C11.376 4.686 11.6608 4.8008 12 4.8ZM19.2 12C19.2 12.34 19.3152 12.6252 19.5456 12.8556C19.776 13.086 20.0608 13.2008 20.4 13.2C20.74 13.2 21.0252 13.0848 21.2556 12.8544C21.486 12.624 21.6008 12.3392 21.6 12C21.6 11.66 21.4848 11.3748 21.2544 11.1444C21.024 10.914 20.7392 10.7992 20.4 10.8C20.06 10.8 19.7748 10.9152 19.5444 11.1456C19.314 11.376 19.1992 11.6608 19.2 12ZM12 19.2C11.66 19.2 11.3748 19.3152 11.1444 19.5456C10.914 19.776 10.7992 20.0608 10.8 20.4C10.8 20.74 10.9152 21.0252 11.1456 21.2556C11.376 21.486 11.6608 21.6008 12 21.6C12.34 21.6 12.6252 21.4848 12.8556 21.2544C13.086 21.024 13.2008 20.7392 13.2 20.4C13.2 20.06 13.0848 19.7748 12.8544 19.5444C12.624 19.314 12.3392 19.1992 12 19.2ZM4.8 12C4.8 11.66 4.6848 11.3748 4.4544 11.1444C4.224 10.914 3.9392 10.7992 3.6 10.8C3.26 10.8 2.9748 10.9152 2.7444 11.1456C2.514 11.376 2.3992 11.6608 2.4 12C2.4 12.34 2.5152 12.6252 2.7456 12.8556C2.976 13.086 3.2608 13.2008 3.6 13.2C3.94 13.2 4.2252 13.0848 4.4556 12.8544C4.686 12.624 4.8008 12.3392 4.8 12ZM12 24C10.34 24 8.78 23.6848 7.32 23.0544C5.86 22.424 4.59 21.5692 3.51 20.49C2.43 19.41 1.5752 18.14 0.9456 16.68C0.316 15.22 0.0008 13.66 0 12C0 10.34 0.3152 8.78 0.9456 7.32C1.576 5.86 2.4308 4.59 3.51 3.51C4.59 2.43 5.86 1.5752 7.32 0.9456C8.78 0.316 10.34 0.0008 12 0C13.66 0 15.22 0.3152 16.68 0.9456C18.14 1.576 19.41 2.4308 20.49 3.51C21.57 4.59 22.4252 5.86 23.0556 7.32C23.686 8.78 24.0008 10.34 24 12C24 13.66 23.6848 15.22 23.0544 16.68C22.424 18.14 21.5692 19.41 20.49 20.49C19.41 21.57 18.14 22.4252 16.68 23.0556C15.22 23.686 13.66 24.0008 12 24Z" fill="#315784"/>
</svg>
