<svg width="34" height="34" viewBox="0 0 34 34" fill="none" xmlns="http://www.w3.org/2000/svg">
<path d="M23.9153 20.3082C25.7899 18.8645 27.1655 16.8705 27.8492 14.6056C28.533 12.3407 28.4906 9.91865 27.7279 7.67909C26.9653 5.43953 25.5208 3.49481 23.5968 2.11765C21.6729 0.740503 19.3661 0 17 0C14.6339 0 12.3271 0.740503 10.4032 2.11765C8.47923 3.49481 7.03467 5.43953 6.27205 7.67909C5.50944 9.91865 5.46704 12.3407 6.15079 14.6056C6.83454 16.8705 8.21015 18.8645 10.0847 20.3082C5.21635 22.369 1.37976 26.5167 0.0599768 31.6393C-0.0121088 31.9185 -0.0193172 32.2104 0.038904 32.4928C0.0971252 32.7752 0.21923 33.0405 0.39586 33.2683C0.572491 33.4962 0.798957 33.6806 1.0579 33.8075C1.31685 33.9343 1.60139 34.0001 1.88974 34H32.1103C32.3986 34.0001 32.6832 33.9343 32.9421 33.8075C33.201 33.6806 33.4275 33.4962 33.6041 33.2683C33.7808 33.0405 33.9029 32.7752 33.9611 32.4928C34.0193 32.2104 34.0121 31.9185 33.94 31.6393C32.6202 26.5144 28.7836 22.3667 23.9153 20.3082Z" fill="#315784" fill-opacity="0.5"/>
</svg>
