<svg width="134" height="147" viewBox="0 0 134 147" fill="none" xmlns="http://www.w3.org/2000/svg">
<ellipse opacity="0.5" cx="67" cy="67" rx="54" ry="54" fill="#0097FE"/>
<circle opacity="0.2" cx="67" cy="67" r="67" fill="#0097FE" fill-opacity="0.5"/>
<rect x="25" y="40.7246" width="84" height="52" rx="10" fill="#315784" fill-opacity="0.7"/>
<path d="M41.1238 51C39.8942 51 39 51.9588 39 53.2772V144.723C39 146.041 39.8942 147 41.1238 147H92.8762C94.1058 147 95 146.041 95 144.723V53.2772C95 51.9588 94.1058 51 92.8762 51H41.1238ZM50.1776 79.7515C50.1776 70.4916 57.6842 62.985 66.9441 62.985C76.204 62.985 83.7106 70.4916 83.7106 79.7515V106.144C83.7106 115.403 76.204 122.91 66.9441 122.91C57.6842 122.91 50.1776 115.404 50.1776 106.144V79.7515ZM66.9441 128.903C70.0739 128.903 72.5329 131.539 72.5329 134.895C72.5329 138.251 70.0739 140.888 66.9441 140.888C63.8144 140.888 61.3553 138.251 61.3553 134.895C61.3553 131.539 63.8144 128.903 66.9441 128.903Z" fill="#315784"/>
<circle cx="67.5" cy="134.5" r="6.5" fill="#F4F6F8"/>
<rect x="47" y="60" width="40" height="64" fill="#F4F6F8"/>
<circle cx="57" cy="92" r="4" fill="#0097FE"/>
<circle opacity="0.5" cx="67" cy="92" r="4" fill="#0097FE"/>
<circle opacity="0.25" cx="77" cy="92" r="4" fill="#0097FE"/>
</svg>
