<svg width="20" height="21" viewBox="0 0 20 21" fill="none" xmlns="http://www.w3.org/2000/svg">
<g clip-path="url(#clip0_568_2785)">
<path d="M19.9842 16.9821C19.9842 19.229 14.9526 20.3998 10.0159 20.3998C5.04751 20.3998 0.0158691 19.229 0.0158691 16.9821C0.0158691 15.1467 3.24372 14.2606 5.14245 13.8809L5.39562 15.1467C2.29435 15.7163 1.28169 16.634 1.28169 16.9505C1.28169 17.71 4.57283 19.1024 9.98422 19.1024C15.364 19.1024 18.6868 17.71 18.6868 16.9505C18.6868 16.6024 17.8323 15.7163 14.5728 15.1467L14.7944 13.8809C18.2121 14.5138 19.9842 15.5581 19.9842 16.9821Z" fill="#F4F6F8"/>
<path d="M9.98419 0.400391C7.19938 0.400391 4.9209 2.67887 4.9209 5.46368C4.9209 9.83077 9.98419 17.7422 9.98419 17.7422C9.98419 17.7422 15.0475 9.76748 15.0475 5.46368C15.0475 2.67887 12.769 0.400391 9.98419 0.400391ZM9.98419 7.1409C9.06647 7.1409 8.27533 6.34976 8.27533 5.43204C8.27533 4.48267 9.06647 3.72318 9.98419 3.72318C10.9336 3.72318 11.6614 4.48267 11.6614 5.43204C11.6614 6.34976 10.9336 7.1409 9.98419 7.1409Z" fill="#F4F6F8"/>
</g>
<defs>
<clipPath id="clip0_568_2785">
<rect width="19.9684" height="20" fill="white" transform="translate(0.0158691 0.400391)"/>
</clipPath>
</defs>
</svg>
