<svg width="28" height="16" viewBox="0 0 28 16" fill="none" xmlns="http://www.w3.org/2000/svg">
<path d="M28 8C28 8.33501 27.823 8.6563 27.5079 8.89319C27.1929 9.13008 26.7656 9.26316 26.32 9.26316H1.68C1.23444 9.26316 0.807122 9.13008 0.492061 8.89319C0.177 8.6563 0 8.33501 0 8C0 7.66499 0.177 7.3437 0.492061 7.10681C0.807122 6.86992 1.23444 6.73684 1.68 6.73684H26.32C26.7656 6.73684 27.1929 6.86992 27.5079 7.10681C27.823 7.3437 28 7.66499 28 8ZM1.68 2.52632H26.32C26.7656 2.52632 27.1929 2.39323 27.5079 2.15635C27.823 1.91946 28 1.59817 28 1.26316C28 0.928148 27.823 0.606858 27.5079 0.36997C27.1929 0.133082 26.7656 0 26.32 0H1.68C1.23444 0 0.807122 0.133082 0.492061 0.36997C0.177 0.606858 0 0.928148 0 1.26316C0 1.59817 0.177 1.91946 0.492061 2.15635C0.807122 2.39323 1.23444 2.52632 1.68 2.52632ZM26.32 13.4737H1.68C1.23444 13.4737 0.807122 13.6068 0.492061 13.8437C0.177 14.0805 0 14.4018 0 14.7368C0 15.0719 0.177 15.3931 0.492061 15.63C0.807122 15.8669 1.23444 16 1.68 16H26.32C26.7656 16 27.1929 15.8669 27.5079 15.63C27.823 15.3931 28 15.0719 28 14.7368C28 14.4018 27.823 14.0805 27.5079 13.8437C27.1929 13.6068 26.7656 13.4737 26.32 13.4737Z" fill="#F4F6F8"/>
</svg>
