<svg width="32" height="32" viewBox="0 0 32 32" fill="none" xmlns="http://www.w3.org/2000/svg">
<path opacity="0.5" d="M16 17.7778C17.7185 17.7778 19.1852 17.1704 20.4 15.9556C21.6148 14.7407 22.2222 13.2741 22.2222 11.5556C22.2222 9.83704 21.6148 8.37037 20.4 7.15556C19.1852 5.94074 17.7185 5.33334 16 5.33334C14.2815 5.33334 12.8148 5.94074 11.6 7.15556C10.3852 8.37037 9.77778 9.83704 9.77778 11.5556C9.77778 13.2741 10.3852 14.7407 11.6 15.9556C12.8148 17.1704 14.2815 17.7778 16 17.7778ZM3.55556 32C2.57778 32 1.74045 31.6516 1.04356 30.9547C0.346669 30.2578 -0.00118217 29.421 3.0183e-06 28.4444V3.55556C3.0183e-06 2.57778 0.348447 1.74045 1.04534 1.04356C1.74222 0.346669 2.57897 -0.00118217 3.55556 3.0183e-06H28.4444C29.4222 3.0183e-06 30.2596 0.348447 30.9564 1.04534C31.6533 1.74222 32.0012 2.57897 32 3.55556V28.4444C32 29.4222 31.6516 30.2596 30.9547 30.9564C30.2578 31.6533 29.421 32.0012 28.4444 32H3.55556ZM3.55556 28.4444H28.4444V26.4C26.8444 24.8296 24.9849 23.5929 22.8658 22.6898C20.7467 21.7867 18.4581 21.3345 16 21.3333C13.5407 21.3333 11.2516 21.7855 9.13245 22.6898C7.01334 23.5941 5.15437 24.8308 3.55556 26.4V28.4444Z" fill="#315784"/>
</svg>
