<svg width="28" height="28" viewBox="0 0 28 28" fill="none" xmlns="http://www.w3.org/2000/svg">
<path d="M19.695 16.7244C21.2387 15.5355 22.3716 13.8933 22.9346 12.0281C23.4977 10.1629 23.4628 8.1683 22.8348 6.32396C22.2067 4.47962 21.0171 2.87808 19.4327 1.74395C17.8483 0.609826 15.9486 0 14 0C12.0514 0 10.1517 0.609826 8.56731 1.74395C6.9829 2.87808 5.79325 4.47962 5.16522 6.32396C4.53719 8.1683 4.50227 10.1629 5.06536 12.0281C5.62845 13.8933 6.7613 15.5355 8.30504 16.7244C4.29582 18.4216 1.13628 21.8373 0.0493926 26.0559C-0.00997196 26.2858 -0.0159083 26.5262 0.0320386 26.7588C0.0799855 26.9913 0.180542 27.2098 0.326003 27.3974C0.471463 27.5851 0.657964 27.737 0.871213 27.8414C1.08446 27.9459 1.31879 28.0001 1.55625 28H26.4437C26.6812 28.0001 26.9155 27.9459 27.1288 27.8414C27.342 27.737 27.5285 27.5851 27.674 27.3974C27.8195 27.2098 27.92 26.9913 27.968 26.7588C28.0159 26.5262 28.01 26.2858 27.9506 26.0559C26.8637 21.8353 23.7042 18.4196 19.695 16.7244Z" fill="#315784"/>
</svg>
