<svg width="17" height="16" viewBox="0 0 17 16" fill="none" xmlns="http://www.w3.org/2000/svg">
<path d="M15.3571 0H10.2143C9.91118 0 9.62049 0.120408 9.40616 0.334735C9.19184 0.549062 9.07143 0.839753 9.07143 1.14286V6.28571C9.07143 6.58882 9.19184 6.87951 9.40616 7.09384C9.62049 7.30816 9.91118 7.42857 10.2143 7.42857H15.3571C15.6602 7.42857 15.9509 7.30816 16.1653 7.09384C16.3796 6.87951 16.5 6.58882 16.5 6.28571V1.14286C16.5 0.839753 16.3796 0.549062 16.1653 0.334735C15.9509 0.120408 15.6602 0 15.3571 0ZM14.2143 4.85714C14.2143 4.93292 14.1842 5.00559 14.1306 5.05917C14.077 5.11276 14.0043 5.14286 13.9286 5.14286H11.6429C11.5671 5.14286 11.4944 5.11276 11.4408 5.05917C11.3872 5.00559 11.3571 4.93292 11.3571 4.85714V2.57143C11.3571 2.49565 11.3872 2.42298 11.4408 2.3694C11.4944 2.31582 11.5671 2.28571 11.6429 2.28571H13.9286C14.0043 2.28571 14.077 2.31582 14.1306 2.3694C14.1842 2.42298 14.2143 2.49565 14.2143 2.57143V4.85714ZM6.78571 0H1.64286C1.33975 0 1.04906 0.120408 0.834735 0.334735C0.620408 0.549062 0.5 0.839753 0.5 1.14286V6.28571C0.5 6.58882 0.620408 6.87951 0.834735 7.09384C1.04906 7.30816 1.33975 7.42857 1.64286 7.42857H6.78571C7.08882 7.42857 7.37951 7.30816 7.59384 7.09384C7.80816 6.87951 7.92857 6.58882 7.92857 6.28571V1.14286C7.92857 0.839753 7.80816 0.549062 7.59384 0.334735C7.37951 0.120408 7.08882 0 6.78571 0ZM5.64286 4.85714C5.64286 4.93292 5.61276 5.00559 5.55917 5.05917C5.50559 5.11276 5.43292 5.14286 5.35714 5.14286H3.07143C2.99565 5.14286 2.92298 5.11276 2.8694 5.05917C2.81582 5.00559 2.78571 4.93292 2.78571 4.85714V2.57143C2.78571 2.49565 2.81582 2.42298 2.8694 2.3694C2.92298 2.31582 2.99565 2.28571 3.07143 2.28571H5.35714C5.43292 2.28571 5.50559 2.31582 5.55917 2.3694C5.61276 2.42298 5.64286 2.49565 5.64286 2.57143V4.85714ZM6.78571 8.57143H1.64286C1.33975 8.57143 1.04906 8.69184 0.834735 8.90616C0.620408 9.12049 0.5 9.41118 0.5 9.71429V14.8571C0.5 15.1602 0.620408 15.4509 0.834735 15.6653C1.04906 15.8796 1.33975 16 1.64286 16H6.78571C7.08882 16 7.37951 15.8796 7.59384 15.6653C7.80816 15.4509 7.92857 15.1602 7.92857 14.8571V9.71429C7.92857 9.41118 7.80816 9.12049 7.59384 8.90616C7.37951 8.69184 7.08882 8.57143 6.78571 8.57143ZM5.64286 13.4286C5.64286 13.5043 5.61276 13.577 5.55917 13.6306C5.50559 13.6842 5.43292 13.7143 5.35714 13.7143H3.07143C2.99565 13.7143 2.92298 13.6842 2.8694 13.6306C2.81582 13.577 2.78571 13.5043 2.78571 13.4286V11.1429C2.78571 11.0671 2.81582 10.9944 2.8694 10.9408C2.92298 10.8872 2.99565 10.8571 3.07143 10.8571H5.35714C5.43292 10.8571 5.50559 10.8872 5.55917 10.9408C5.61276 10.9944 5.64286 11.0671 5.64286 11.1429V13.4286Z" fill="#F4F6F8"/>
<path d="M13.7615 10.7695H11.5461C11.3931 10.7695 11.2692 10.8935 11.2692 11.0465V13.2618C11.2692 13.4148 11.3931 13.5388 11.5461 13.5388H13.7615C13.9144 13.5388 14.0384 13.4148 14.0384 13.2618V11.0465C14.0384 10.8935 13.9144 10.7695 13.7615 10.7695Z" fill="#F4F6F8"/>
<path d="M11.0384 8.92188H9.6538C9.52635 8.92188 9.42303 9.02519 9.42303 9.15264V10.5373C9.42303 10.6647 9.52635 10.768 9.6538 10.768H11.0384C11.1659 10.768 11.2692 10.6647 11.2692 10.5373V9.15264C11.2692 9.02519 11.1659 8.92188 11.0384 8.92188Z" fill="#F4F6F8"/>
<path d="M15.6538 13.5391H14.2692C14.1418 13.5391 14.0385 13.6424 14.0385 13.7698V15.1544C14.0385 15.2819 14.1418 15.3852 14.2692 15.3852H15.6538C15.7813 15.3852 15.8846 15.2819 15.8846 15.1544V13.7698C15.8846 13.6424 15.7813 13.5391 15.6538 13.5391Z" fill="#F4F6F8"/>
<path d="M15.5769 8.92188H14.3461C14.1762 8.92188 14.0385 9.05963 14.0385 9.22957V10.4603C14.0385 10.6303 14.1762 10.768 14.3461 10.768H15.5769C15.7468 10.768 15.8846 10.6303 15.8846 10.4603V9.22957C15.8846 9.05963 15.7468 8.92188 15.5769 8.92188Z" fill="#F4F6F8"/>
<path d="M10.9615 13.5391H9.73073C9.56079 13.5391 9.42303 13.6768 9.42303 13.8468V15.0775C9.42303 15.2475 9.56079 15.3852 9.73073 15.3852H10.9615C11.1314 15.3852 11.2692 15.2475 11.2692 15.0775V13.8468C11.2692 13.6768 11.1314 13.5391 10.9615 13.5391Z" fill="#F4F6F8"/>
</svg>
