<svg width="29" height="32" viewBox="0 0 29 32" fill="none" xmlns="http://www.w3.org/2000/svg">
<path opacity="0.5" d="M14.5 32C12.5556 32 10.734 31.6301 9.03533 30.8905C7.33667 30.1508 5.85889 29.1527 4.602 27.8964C3.34511 26.638 2.34748 25.1596 1.60911 23.4614C0.870741 21.7631 0.501037 19.9408 0.5 17.9946C0.5 17.5537 0.649333 17.1838 0.948 16.885C1.24667 16.5863 1.61585 16.4374 2.05556 16.4384C2.4963 16.4384 2.866 16.5878 3.16467 16.8866C3.46333 17.1854 3.61215 17.5547 3.61111 17.9946C3.61111 21.0291 4.66785 23.6035 6.78133 25.7178C8.89481 27.8321 11.4677 28.8887 14.5 28.8877C17.5333 28.8877 20.1067 27.8305 22.2202 25.7162C24.3337 23.6019 25.3899 21.028 25.3889 17.9946C25.3889 14.9601 24.3321 12.3857 22.2187 10.2714C20.1052 8.15706 17.5323 7.10043 14.5 7.10147H14.2667L15.5889 8.4242C15.9 8.73543 16.0493 9.09854 16.0369 9.51351C16.0244 9.92849 15.8751 10.2916 15.5889 10.6028C15.2778 10.9141 14.9086 11.0764 14.4813 11.0899C14.0541 11.1034 13.6844 10.954 13.3722 10.6417L9.36666 6.63462C9.05555 6.32339 8.9 5.96028 8.9 5.54531C8.9 5.13033 9.05555 4.76723 9.36666 4.456L13.3722 0.448892C13.6833 0.13766 14.053 -0.011731 14.4813 0.000718227C14.9096 0.0131675 15.2788 0.175527 15.5889 0.487796C15.8741 0.799027 16.0234 1.16213 16.0369 1.57711C16.0504 1.99208 15.901 2.35519 15.5889 2.66642L14.2667 3.98915H14.5C16.4444 3.98915 18.266 4.359 19.9647 5.09869C21.6633 5.83839 23.1411 6.83692 24.398 8.0943C25.6549 9.35167 26.653 10.83 27.3924 12.5293C28.1318 14.2287 28.501 16.0504 28.5 17.9946C28.5 19.9398 28.1303 21.762 27.3909 23.4614C26.6515 25.1607 25.6539 26.639 24.398 27.8964C23.1401 29.1538 21.6623 30.1523 19.9647 30.892C18.267 31.6317 16.4455 32.001 14.5 32Z" fill="#315784"/>
</svg>
