<svg width="32" height="32" viewBox="0 0 32 32" fill="none" xmlns="http://www.w3.org/2000/svg">
<path opacity="0.5" fill-rule="evenodd" clip-rule="evenodd" d="M0 16C0 8.4576 0 4.6864 2.3424 2.3424C4.688 0 8.4576 0 16 0C23.5424 0 27.3136 0 29.656 2.3424C32 4.688 32 8.4576 32 16C32 23.5424 32 27.3136 29.656 29.656C27.3152 32 23.5424 32 16 32C8.4576 32 4.6864 32 2.3424 29.656C0 27.3152 0 23.5424 0 16ZM12.8064 6.0032C12.964 6.00236 13.1199 5.97049 13.2651 5.90941C13.4104 5.84832 13.5422 5.75923 13.6531 5.6472C13.7639 5.53518 13.8516 5.40242 13.9111 5.25651C13.9706 5.11059 14.0008 4.95439 14 4.7968C13.9992 4.63921 13.9673 4.48334 13.9062 4.33807C13.8451 4.1928 13.756 4.06098 13.644 3.95015C13.532 3.83931 13.3992 3.75162 13.2533 3.6921C13.1074 3.63257 12.9512 3.60236 12.7936 3.6032C11.0624 3.6112 9.6256 3.6512 8.4528 3.856C7.2496 4.0672 6.2208 4.4672 5.3776 5.2704C4.6496 5.9632 4.1616 6.6656 3.8976 7.6752C3.6576 8.5888 3.6144 9.7152 3.6032 11.1904C3.60194 11.348 3.63173 11.5043 3.69087 11.6504C3.75001 11.7964 3.83734 11.9294 3.94788 12.0417C4.05842 12.1541 4.19 12.2435 4.33511 12.305C4.48022 12.3665 4.63601 12.3987 4.7936 12.4C4.95119 12.4013 5.10748 12.3715 5.25355 12.3123C5.39962 12.2532 5.53262 12.1659 5.64494 12.0553C5.75726 11.9448 5.84671 11.8132 5.90818 11.6681C5.96965 11.523 6.00194 11.3672 6.0032 11.2096C6.016 9.6912 6.0672 8.864 6.2192 8.2848C6.3472 7.8 6.5488 7.4688 7.0336 7.008C7.4208 6.64 7.9488 6.3808 8.8656 6.2208C9.8128 6.0544 11.0576 6.0128 12.8064 6.0032ZM19.2064 3.6032C18.8881 3.6015 18.5822 3.7263 18.356 3.95015C18.1298 4.17399 18.0017 4.47854 18 4.7968C17.9983 5.11506 18.1231 5.42096 18.3469 5.6472C18.5708 5.87345 18.8753 6.0015 19.1936 6.0032C20.9424 6.0128 22.1872 6.0544 23.1344 6.2208C24.0512 6.3808 24.5792 6.64 24.9664 7.008C25.4512 7.4688 25.6544 7.8 25.7808 8.2848C25.9328 8.864 25.9856 9.6912 25.9968 11.2096C25.9993 11.5279 26.1282 11.8321 26.3551 12.0553C26.5819 12.2786 26.8881 12.4025 27.2064 12.4C27.5247 12.3975 27.8289 12.2686 28.0521 12.0417C28.2754 11.8149 28.3993 11.5087 28.3968 11.1904C28.3856 9.7152 28.3424 8.5888 28.1024 7.6752C27.8368 6.6672 27.3504 5.9632 26.6224 5.2704C25.7792 4.4672 24.7504 4.0672 23.5472 3.856C22.3744 3.6512 20.9376 3.6112 19.2064 3.6032ZM4.8 14.8C4.48174 14.8 4.17652 14.9264 3.95147 15.1515C3.72643 15.3765 3.6 15.6817 3.6 16C3.6 16.3183 3.72643 16.6235 3.95147 16.8485C4.17652 17.0736 4.48174 17.2 4.8 17.2H27.2C27.5183 17.2 27.8235 17.0736 28.0485 16.8485C28.2736 16.6235 28.4 16.3183 28.4 16C28.4 15.6817 28.2736 15.3765 28.0485 15.1515C27.8235 14.9264 27.5183 14.8 27.2 14.8H4.8ZM6.0032 20.7904C6.00065 20.4721 5.87178 20.1679 5.64494 19.9447C5.4181 19.7214 5.11186 19.5975 4.7936 19.6C4.47534 19.6025 4.17113 19.7314 3.94788 19.9583C3.72464 20.1851 3.60065 20.4913 3.6032 20.8096C3.6144 22.2864 3.6576 23.4112 3.8976 24.3248C4.1632 25.3328 4.6496 26.0368 5.3776 26.7296C6.2208 27.5328 7.2496 27.9328 8.4528 28.144C9.6256 28.3488 11.0624 28.3888 12.7936 28.3968C12.9512 28.3976 13.1074 28.3674 13.2533 28.3079C13.3992 28.2484 13.532 28.1607 13.644 28.0499C13.756 27.939 13.8451 27.8072 13.9062 27.6619C13.9673 27.5167 13.9992 27.3608 14 27.2032C14.0008 27.0456 13.9706 26.8894 13.9111 26.7435C13.8516 26.5976 13.7639 26.4648 13.6531 26.3528C13.5422 26.2408 13.4104 26.1517 13.2651 26.0906C13.1199 26.0295 12.964 25.9976 12.8064 25.9968C11.0576 25.9888 9.8128 25.9456 8.8656 25.7792C7.9488 25.6192 7.4208 25.3616 7.0336 24.992C6.5488 24.5312 6.3456 24.2 6.2192 23.7152C6.0672 23.1376 6.016 22.3088 6.0032 20.7904ZM28.3968 20.8096C28.3981 20.652 28.3683 20.4957 28.3091 20.3496C28.25 20.2036 28.1627 20.0706 28.0521 19.9583C27.9416 19.8459 27.81 19.7565 27.6649 19.695C27.5198 19.6335 27.364 19.6013 27.2064 19.6C27.0488 19.5987 26.8925 19.6285 26.7464 19.6877C26.6004 19.7468 26.4674 19.8341 26.3551 19.9447C26.2427 20.0552 26.1533 20.1868 26.0918 20.3319C26.0303 20.477 25.9981 20.6328 25.9968 20.7904C25.984 22.3104 25.9328 23.1376 25.7808 23.7152C25.6528 24.2 25.4512 24.5312 24.9664 24.992C24.5792 25.36 24.0512 25.6192 23.1344 25.7792C22.1872 25.9456 20.9424 25.9872 19.1936 25.9968C18.8753 25.9985 18.5708 26.1266 18.3469 26.3528C18.1231 26.579 17.9983 26.8849 18 27.2032C18.0017 27.5215 18.1298 27.826 18.356 28.0499C18.5822 28.2737 18.8881 28.3985 19.2064 28.3968C20.9376 28.3888 22.3744 28.3488 23.5472 28.144C24.7504 27.9328 25.7792 27.5328 26.6224 26.7296C27.3504 26.0368 27.8384 25.3344 28.1024 24.3248C28.3424 23.4112 28.3856 22.2864 28.3968 20.8096Z" fill="#315784"/>
</svg>
