<svg width="44" height="40" viewBox="0 0 44 40" fill="none" xmlns="http://www.w3.org/2000/svg">
<path d="M14.1948 8C13.0319 8 11.9167 8.46195 11.0944 9.28422C10.2721 10.1065 9.81016 11.2217 9.81016 12.3846V15.4806C9.81016 15.7866 9.93173 16.0801 10.1481 16.2965C10.3645 16.5129 10.658 16.6345 10.964 16.6345C11.27 16.6345 11.5635 16.5129 11.7799 16.2965C11.9963 16.0801 12.1179 15.7866 12.1179 15.4806V12.3846C12.1179 11.8338 12.3367 11.3055 12.7262 10.916C13.1157 10.5265 13.6439 10.3077 14.1948 10.3077H17.2908C17.5968 10.3077 17.8903 10.1861 18.1067 9.96974C18.3231 9.75335 18.4446 9.45987 18.4446 9.15385C18.4446 8.84783 18.3231 8.55434 18.1067 8.33795C17.8903 8.12157 17.5968 8 17.2908 8H14.1948ZM26.3295 8C26.0235 8 25.73 8.12157 25.5137 8.33795C25.2973 8.55434 25.1757 8.84783 25.1757 9.15385C25.1757 9.45987 25.2973 9.75335 25.5137 9.96974C25.73 10.1861 26.0235 10.3077 26.3295 10.3077H29.4255C29.9764 10.3077 30.5047 10.5265 30.8942 10.916C31.2837 11.3055 31.5025 11.8338 31.5025 12.3846V15.4806C31.5025 15.7866 31.624 16.0801 31.8404 16.2965C32.0568 16.5129 32.3503 16.6345 32.6563 16.6345C32.9623 16.6345 33.2558 16.5129 33.4722 16.2965C33.6886 16.0801 33.8102 15.7866 33.8102 15.4806V12.3846C33.8102 11.2217 33.3482 10.1065 32.5259 9.28422C31.7037 8.46195 30.5884 8 29.4255 8H26.3295ZM12.1179 24.5194C12.1179 24.2134 11.9963 23.9199 11.7799 23.7035C11.5635 23.4871 11.27 23.3655 10.964 23.3655C10.658 23.3655 10.3645 23.4871 10.1481 23.7035C9.93173 23.9199 9.81016 24.2134 9.81016 24.5194V27.6154C9.81016 28.7783 10.2721 29.8935 11.0944 30.7158C11.9167 31.5381 13.0319 32 14.1948 32H17.2908C17.5968 32 17.8903 31.8784 18.1067 31.662C18.3231 31.4457 18.4446 31.1522 18.4446 30.8462C18.4446 30.5401 18.3231 30.2466 18.1067 30.0303C17.8903 29.8139 17.5968 29.6923 17.2908 29.6923H14.1948C13.6439 29.6923 13.1157 29.4735 12.7262 29.084C12.3367 28.6945 12.1179 28.1662 12.1179 27.6154V24.5194ZM33.8102 24.5194C33.8102 24.2134 33.6886 23.9199 33.4722 23.7035C33.2558 23.4871 32.9623 23.3655 32.6563 23.3655C32.3503 23.3655 32.0568 23.4871 31.8404 23.7035C31.624 23.9199 31.5025 24.2134 31.5025 24.5194V27.6154C31.5025 28.1662 31.2837 28.6945 30.8942 29.084C30.5047 29.4735 29.9764 29.6923 29.4255 29.6923H26.3295C26.0235 29.6923 25.73 29.8139 25.5137 30.0303C25.2973 30.2466 25.1757 30.5401 25.1757 30.8462C25.1757 31.1522 25.2973 31.4457 25.5137 31.662C25.73 31.8784 26.0235 32 26.3295 32H29.4255C30.5884 32 31.7037 31.5381 32.5259 30.7158C33.3482 29.8935 33.8102 28.7783 33.8102 27.6154V24.5194ZM15.8102 18.8462C15.5041 18.8462 15.2107 18.9677 14.9943 19.1841C14.7779 19.4005 14.6563 19.694 14.6563 20C14.6563 20.306 14.7779 20.5995 14.9943 20.8159C15.2107 21.0323 15.5041 21.1538 15.8102 21.1538H27.8102C28.1162 21.1538 28.4097 21.0323 28.6261 20.8159C28.8424 20.5995 28.964 20.306 28.964 20C28.964 19.694 28.8424 19.4005 28.6261 19.1841C28.4097 18.9677 28.1162 18.8462 27.8102 18.8462H15.8102Z" fill="#315784"/>
</svg>
