<svg width="134" height="147" viewBox="0 0 134 147" fill="none" xmlns="http://www.w3.org/2000/svg">
<ellipse opacity="0.5" cx="67" cy="67" rx="54" ry="54" fill="#315784"/>
<circle opacity="0.2" cx="67" cy="67" r="67" fill="#315784"/>
<rect x="25" y="40.7246" width="84" height="52" rx="10" fill="#315784" fill-opacity="0.7"/>
<path d="M41.1238 51C39.8942 51 39 51.9588 39 53.2772V144.723C39 146.041 39.8942 147 41.1238 147H92.8762C94.1058 147 95 146.041 95 144.723V53.2772C95 51.9588 94.1058 51 92.8762 51H41.1238ZM50.1776 79.7515C50.1776 70.4916 57.6842 62.985 66.9441 62.985C76.204 62.985 83.7106 70.4916 83.7106 79.7515V106.144C83.7106 115.403 76.204 122.91 66.9441 122.91C57.6842 122.91 50.1776 115.404 50.1776 106.144V79.7515ZM66.9441 128.903C70.0739 128.903 72.5329 131.539 72.5329 134.895C72.5329 138.251 70.0739 140.888 66.9441 140.888C63.8144 140.888 61.3553 138.251 61.3553 134.895C61.3553 131.539 63.8144 128.903 66.9441 128.903Z" fill="#315784"/>
<circle cx="67.5" cy="134.5" r="6.5" fill="#F4F6F8"/>
<rect x="47" y="60" width="40" height="64" fill="#F4F6F8"/>
<path d="M59.3846 80C58.2217 80 57.1065 80.4619 56.2842 81.2842C55.4619 82.1065 55 83.2217 55 84.3846V87.4806C55 87.7866 55.1216 88.0801 55.338 88.2965C55.5543 88.5129 55.8478 88.6345 56.1538 88.6345C56.4599 88.6345 56.7534 88.5129 56.9697 88.2965C57.1861 88.0801 57.3077 87.7866 57.3077 87.4806V84.3846C57.3077 83.8338 57.5265 83.3055 57.916 82.916C58.3055 82.5265 58.8338 82.3077 59.3846 82.3077H62.4806C62.7866 82.3077 63.0801 82.1861 63.2965 81.9697C63.5129 81.7534 63.6345 81.4599 63.6345 81.1538C63.6345 80.8478 63.5129 80.5543 63.2965 80.338C63.0801 80.1216 62.7866 80 62.4806 80H59.3846ZM71.5194 80C71.2134 80 70.9199 80.1216 70.7035 80.338C70.4871 80.5543 70.3655 80.8478 70.3655 81.1538C70.3655 81.4599 70.4871 81.7534 70.7035 81.9697C70.9199 82.1861 71.2134 82.3077 71.5194 82.3077H74.6154C75.1662 82.3077 75.6945 82.5265 76.084 82.916C76.4735 83.3055 76.6923 83.8338 76.6923 84.3846V87.4806C76.6923 87.7866 76.8139 88.0801 77.0303 88.2965C77.2466 88.5129 77.5401 88.6345 77.8462 88.6345C78.1522 88.6345 78.4457 88.5129 78.662 88.2965C78.8784 88.0801 79 87.7866 79 87.4806V84.3846C79 83.2217 78.5381 82.1065 77.7158 81.2842C76.8935 80.4619 75.7783 80 74.6154 80H71.5194ZM57.3077 96.5194C57.3077 96.2134 57.1861 95.9199 56.9697 95.7035C56.7534 95.4871 56.4599 95.3655 56.1538 95.3655C55.8478 95.3655 55.5543 95.4871 55.338 95.7035C55.1216 95.9199 55 96.2134 55 96.5194V99.6154C55 100.778 55.4619 101.894 56.2842 102.716C57.1065 103.538 58.2217 104 59.3846 104H62.4806C62.7866 104 63.0801 103.878 63.2965 103.662C63.5129 103.446 63.6345 103.152 63.6345 102.846C63.6345 102.54 63.5129 102.247 63.2965 102.03C63.0801 101.814 62.7866 101.692 62.4806 101.692H59.3846C58.8338 101.692 58.3055 101.473 57.916 101.084C57.5265 100.694 57.3077 100.166 57.3077 99.6154V96.5194ZM79 96.5194C79 96.2134 78.8784 95.9199 78.662 95.7035C78.4457 95.4871 78.1522 95.3655 77.8462 95.3655C77.5401 95.3655 77.2466 95.4871 77.0303 95.7035C76.8139 95.9199 76.6923 96.2134 76.6923 96.5194V99.6154C76.6923 100.166 76.4735 100.694 76.084 101.084C75.6945 101.473 75.1662 101.692 74.6154 101.692H71.5194C71.2134 101.692 70.9199 101.814 70.7035 102.03C70.4871 102.247 70.3655 102.54 70.3655 102.846C70.3655 103.152 70.4871 103.446 70.7035 103.662C70.9199 103.878 71.2134 104 71.5194 104H74.6154C75.7783 104 76.8935 103.538 77.7158 102.716C78.5381 101.894 79 100.778 79 99.6154V96.5194ZM61 90.8462C60.694 90.8462 60.4005 90.9677 60.1841 91.1841C59.9677 91.4005 59.8462 91.694 59.8462 92C59.8462 92.306 59.9677 92.5995 60.1841 92.8159C60.4005 93.0323 60.694 93.1538 61 93.1538H73C73.306 93.1538 73.5995 93.0323 73.8159 92.8159C74.0323 92.5995 74.1538 92.306 74.1538 92C74.1538 91.694 74.0323 91.4005 73.8159 91.1841C73.5995 90.9677 73.306 90.8462 73 90.8462H61Z" fill="#315784"/>
</svg>
