<svg width="122" height="122" viewBox="0 0 122 122" fill="none" xmlns="http://www.w3.org/2000/svg">
<ellipse opacity="0.2" cx="61" cy="61" rx="60.5" ry="61" fill="#B90000"/>
<circle opacity="0.5" cx="61" cy="61" r="49" fill="#B90000"/>
<ellipse cx="60.0625" cy="62.1055" rx="35.5875" ry="35.625" fill="#F4F6F8"/>
<path d="M89.4984 32.6708C73.8987 17.1097 48.2993 17.1097 32.6997 32.6708C17.1001 48.2319 17.1001 73.7681 32.6997 89.3292C48.2993 104.89 73.4987 104.89 89.0984 89.3292C104.698 73.7681 105.098 48.2319 89.4984 32.6708ZM72.2988 77.7581L61.099 66.586L49.8993 77.7581L44.2994 72.1721L55.4992 61L44.2994 49.8279L49.8993 44.2419L61.099 55.414L72.2988 44.2419L77.8986 49.8279L66.6989 61L77.8986 72.1721L72.2988 77.7581Z" fill="#B90000"/>
</svg>
