<svg width="122" height="122" viewBox="0 0 122 122" fill="none" xmlns="http://www.w3.org/2000/svg">
<ellipse opacity="0.2" cx="61" cy="61" rx="60.5" ry="61" fill="#4DC849"/>
<circle opacity="0.5" cx="61" cy="61" r="49" fill="#4DC849"/>
<ellipse cx="60.0625" cy="62.1055" rx="35.5875" ry="35.625" fill="#F4F6F8"/>
<path d="M61 21C71.6087 21 81.7828 25.2143 89.2843 32.7157C96.7857 40.2172 101 50.3913 101 61C101 71.6087 96.7857 81.7828 89.2843 89.2843C81.7828 96.7857 71.6087 101 61 101C50.3913 101 40.2172 96.7857 32.7157 89.2843C25.2143 81.7828 21 71.6087 21 61C21 50.3913 25.2143 40.2172 32.7157 32.7157C40.2172 25.2143 50.3913 21 61 21ZM56.0171 68.8914L47.1314 60C46.8129 59.6814 46.4347 59.4288 46.0185 59.2564C45.6023 59.084 45.1562 58.9952 44.7057 58.9952C44.2552 58.9952 43.8091 59.084 43.3929 59.2564C42.9767 59.4288 42.5985 59.6814 42.28 60C41.6367 60.6433 41.2752 61.5159 41.2752 62.4257C41.2752 63.3355 41.6367 64.2081 42.28 64.8514L53.5943 76.1657C53.9119 76.4859 54.2898 76.74 54.7061 76.9134C55.1225 77.0868 55.569 77.176 56.02 77.176C56.471 77.176 56.9175 77.0868 57.3339 76.9134C57.7502 76.74 58.1281 76.4859 58.4457 76.1657L81.8743 52.7314C82.1971 52.4142 82.4539 52.0362 82.6299 51.6192C82.8059 51.2023 82.8976 50.7546 82.8997 50.302C82.9018 49.8494 82.8142 49.4009 82.6421 48.9823C82.47 48.5637 82.2168 48.1833 81.8969 47.8631C81.5771 47.5429 81.197 47.2892 80.7786 47.1166C80.3602 46.944 79.9118 46.8559 79.4592 46.8575C79.0066 46.8591 78.5588 46.9502 78.1417 47.1257C77.7245 47.3012 77.3462 47.5576 77.0286 47.88L56.0171 68.8914Z" fill="#4DC849"/>
</svg>
