<svg width="134" height="147" viewBox="0 0 134 147" fill="none" xmlns="http://www.w3.org/2000/svg">
<ellipse opacity="0.5" cx="67" cy="67" rx="54" ry="54" fill="#4DC849"/>
<circle opacity="0.2" cx="67" cy="67" r="67" fill="#4DC849"/>
<rect x="25" y="40.7246" width="84" height="52" rx="10" fill="#315784" fill-opacity="0.7"/>
<path d="M41.1238 51C39.8942 51 39 51.9588 39 53.2772V144.723C39 146.041 39.8942 147 41.1238 147H92.8762C94.1058 147 95 146.041 95 144.723V53.2772C95 51.9588 94.1058 51 92.8762 51H41.1238ZM50.1776 79.7515C50.1776 70.4916 57.6842 62.985 66.9441 62.985C76.204 62.985 83.7106 70.4916 83.7106 79.7515V106.144C83.7106 115.403 76.204 122.91 66.9441 122.91C57.6842 122.91 50.1776 115.404 50.1776 106.144V79.7515ZM66.9441 128.903C70.0739 128.903 72.5329 131.539 72.5329 134.895C72.5329 138.251 70.0739 140.888 66.9441 140.888C63.8144 140.888 61.3553 138.251 61.3553 134.895C61.3553 131.539 63.8144 128.903 66.9441 128.903Z" fill="#315784"/>
<circle cx="67.5" cy="134.5" r="6.5" fill="#F4F6F8"/>
<rect x="47" y="60" width="40" height="64" fill="#F4F6F8"/>
<path d="M67 80C70.1826 80 73.2348 81.2643 75.4853 83.5147C77.7357 85.7652 79 88.8174 79 92C79 95.1826 77.7357 98.2348 75.4853 100.485C73.2348 102.736 70.1826 104 67 104C63.8174 104 60.7652 102.736 58.5147 100.485C56.2643 98.2348 55 95.1826 55 92C55 88.8174 56.2643 85.7652 58.5147 83.5147C60.7652 81.2643 63.8174 80 67 80ZM65.5051 94.3674L62.8394 91.7C62.7439 91.6044 62.6304 91.5286 62.5056 91.4769C62.3807 91.4252 62.2469 91.3986 62.1117 91.3986C61.9766 91.3986 61.8427 91.4252 61.7179 91.4769C61.593 91.5286 61.4796 91.6044 61.384 91.7C61.191 91.893 61.0826 92.1548 61.0826 92.4277C61.0826 92.7007 61.191 92.9624 61.384 93.1554L64.7783 96.5497C64.8736 96.6458 64.9869 96.722 65.1118 96.774C65.2367 96.826 65.3707 96.8528 65.506 96.8528C65.6413 96.8528 65.7753 96.826 65.9002 96.774C66.0251 96.722 66.1384 96.6458 66.2337 96.5497L73.2623 89.5194C73.3591 89.4243 73.4362 89.3109 73.489 89.1858C73.5418 89.0607 73.5693 88.9264 73.5699 88.7906C73.5705 88.6548 73.5443 88.5203 73.4926 88.3947C73.441 88.2691 73.365 88.155 73.2691 88.0589C73.1731 87.9629 73.0591 87.8867 72.9336 87.835C72.8081 87.7832 72.6735 87.7568 72.5378 87.7572C72.402 87.7577 72.2677 87.7851 72.1425 87.8377C72.0173 87.8904 71.9039 87.9673 71.8086 88.064L65.5051 94.3674Z" fill="#4DC849"/>
</svg>
