<svg width="33" height="30" viewBox="0 0 33 30" fill="none" xmlns="http://www.w3.org/2000/svg">
<path opacity="0.5" fill-rule="evenodd" clip-rule="evenodd" d="M31.7969 1.65361C32.2471 2.21421 32.5 2.97445 32.5 3.76715C32.5 4.55984 32.2471 5.32008 31.7969 5.88068L13.7983 28.2876C13.5605 28.5838 13.2781 28.8187 12.9673 28.979C12.6565 29.1393 12.3234 29.2218 11.9869 29.2218C11.6505 29.2218 11.3174 29.1393 11.0066 28.979C10.6958 28.8187 10.4134 28.5838 10.1756 28.2876L1.23309 17.1569C1.00374 16.8811 0.820805 16.5512 0.694955 16.1865C0.569104 15.8218 0.502861 15.4295 0.500091 15.0326C0.49732 14.6356 0.558077 14.242 0.678817 13.8746C0.799557 13.5072 0.977862 13.1734 1.20333 12.8927C1.42879 12.6121 1.6969 12.3901 1.99201 12.2398C2.28713 12.0895 2.60333 12.0138 2.92217 12.0173C3.24102 12.0207 3.55612 12.1032 3.84909 12.2599C4.14205 12.4165 4.40703 12.6443 4.62854 12.9298L11.9861 22.0895L28.3999 1.65361C28.6229 1.37581 28.8877 1.15544 29.1791 1.00508C29.4706 0.854731 29.7829 0.777344 30.0984 0.777344C30.4139 0.777344 30.7263 0.854731 31.0177 1.00508C31.3091 1.15544 31.5739 1.37581 31.7969 1.65361Z" fill="#315784"/>
</svg>
