<svg width="17" height="16" viewBox="0 0 17 16" fill="none" xmlns="http://www.w3.org/2000/svg">
<g clip-path="url(#clip0_591_9382)">
<path d="M16.4873 13.2662C16.4873 15.0636 12.462 16.0003 8.51263 16.0003C4.53795 16.0003 0.512634 15.0636 0.512634 13.2662C0.512634 11.7978 3.09491 11.089 4.6139 10.7852L4.81643 11.7978C2.33542 12.2535 1.52529 12.9877 1.52529 13.2409C1.52529 13.8484 4.1582 14.9624 8.48732 14.9624C12.7911 14.9624 15.4493 13.8484 15.4493 13.2409C15.4493 12.9624 14.7658 12.2535 12.1582 11.7978L12.3354 10.7852C15.0696 11.2915 16.4873 12.1269 16.4873 13.2662Z" fill="#315784"/>
<path d="M8.48734 0C6.25949 0 4.43671 1.82278 4.43671 4.05063C4.43671 7.5443 8.48734 13.8734 8.48734 13.8734C8.48734 13.8734 12.538 7.49367 12.538 4.05063C12.538 1.82278 10.7152 0 8.48734 0ZM8.48734 5.39241C7.75316 5.39241 7.12025 4.75949 7.12025 4.02532C7.12025 3.26582 7.75316 2.65823 8.48734 2.65823C9.24683 2.65823 9.82911 3.26582 9.82911 4.02532C9.82911 4.75949 9.24683 5.39241 8.48734 5.39241Z" fill="#315784"/>
</g>
<defs>
<clipPath id="clip0_591_9382">
<rect width="15.9747" height="16" fill="white" transform="translate(0.512634)"/>
</clipPath>
</defs>
</svg>
