<svg width="14" height="16" viewBox="0 0 14 16" fill="none" xmlns="http://www.w3.org/2000/svg">
<path d="M7 16C6.02778 16 5.117 15.8151 4.26767 15.4452C3.41833 15.0754 2.67944 14.5764 2.051 13.9482C1.42256 13.319 0.923741 12.5798 0.554556 11.7307C0.18537 10.8815 0.000518518 9.9704 0 8.99729C0 8.77683 0.0746667 8.59191 0.224 8.44252C0.373333 8.29313 0.557926 8.21869 0.777778 8.21921C0.998148 8.21921 1.183 8.2939 1.33233 8.44329C1.48167 8.59269 1.55607 8.77735 1.55556 8.99729C1.55556 10.5145 2.08393 11.8017 3.14067 12.8589C4.19741 13.916 5.48385 14.4444 7 14.4438C8.51667 14.4438 9.80337 13.9153 10.8601 12.8581C11.9169 11.801 12.445 10.514 12.4444 8.99729C12.4444 7.48003 11.9161 6.19283 10.8593 5.13568C9.80259 4.07853 8.51615 3.55021 7 3.55073H6.88333L7.54444 4.2121C7.7 4.36772 7.77467 4.54927 7.76844 4.75676C7.76222 4.96424 7.68755 5.1458 7.54444 5.30141C7.38889 5.45703 7.2043 5.53821 6.99067 5.54495C6.77704 5.55169 6.59218 5.477 6.43611 5.32086L4.43333 3.31731C4.27778 3.16169 4.2 2.98014 4.2 2.77265C4.2 2.56517 4.27778 2.38362 4.43333 2.228L6.43611 0.224446C6.59167 0.0688301 6.77652 -0.00586552 6.99067 0.000359113C7.20481 0.00658375 7.38941 0.0877633 7.54444 0.243898C7.68704 0.399514 7.7617 0.581065 7.76844 0.788553C7.77518 0.996041 7.70052 1.17759 7.54444 1.33321L6.88333 1.99458H7C7.97222 1.99458 8.883 2.1795 9.73233 2.54935C10.5817 2.91919 11.3206 3.41846 11.949 4.04715C12.5774 4.67584 13.0765 5.41501 13.4462 6.26467C13.8159 7.11434 14.0005 8.02521 14 8.99729C14 9.96989 13.8151 10.881 13.4454 11.7307C13.0757 12.5803 12.5769 13.3195 11.949 13.9482C11.32 14.5769 10.5811 15.0762 9.73233 15.446C8.88352 15.8159 7.97274 16.0005 7 16Z" fill="#F4F6F8"/>
</svg>
