<svg width="22" height="16" viewBox="0 0 22 16" fill="none" xmlns="http://www.w3.org/2000/svg">
<path d="M11.8137 16V11.4286H14.8751L11.0483 6.85714L7.2215 11.4286H10.2829V16H6.45614V15.9619C6.32756 15.9695 6.2051 16 6.07346 16C4.55106 16 3.09102 15.398 2.01452 14.3263C0.938022 13.2547 0.333252 11.8012 0.333252 10.2857C0.333252 7.3539 2.56045 4.96457 5.41831 4.63695C5.66887 3.33302 6.36804 2.15675 7.39555 1.31048C8.42307 0.464197 9.7147 0.000804593 11.0483 0C12.3821 0.000743106 13.6739 0.464081 14.7017 1.31034C15.7295 2.1566 16.4289 3.33289 16.6798 4.63695C19.5377 4.96457 21.7618 7.3539 21.7618 10.2857C21.7618 11.8012 21.1571 13.2547 20.0806 14.3263C19.0041 15.398 17.544 16 16.0216 16C15.893 16 15.769 15.9695 15.6389 15.9619V16H11.8137Z" fill="#F4F6F8"/>
</svg>
